<svg width="83" height="81" viewBox="0 0 83 81" fill="none" xmlns="http://www.w3.org/2000/svg">
<path d="M19.0972 38.3166L26.7803 17.798C26.7803 17.798 74.3919 36.7872 74.8293 36.961C75.2667 37.1349 68.8152 58.1462 68.8152 58.1462L19.098 38.3191L19.0972 38.3166Z" fill="#FFD500"/>
<path d="M19.0977 38.3165L12.3597 50.1794L56.7768 68.3979L68.815 58.1435L19.0977 38.3165Z" fill="#FFB900"/>
<path d="M26.7796 17.7956L26.1253 11.8923L67.5536 27.535L74.8294 36.9611L26.7796 17.7956Z" fill="#FFFF00"/>
<path d="M26.7803 17.7954L1.88833 26.1815L26.126 11.892L26.7803 17.7954Z" fill="#FFFF88"/>
<path d="M19.0978 38.3164L26.7801 17.7954L1.8882 26.1816L19.0978 38.3164Z" fill="#FFE800"/>
<path d="M19.0978 38.3165L1.88818 26.1816L12.3598 50.1794L19.0978 38.3165Z" fill="#FFD200"/>
<path d="M12.3599 50.1793L1.88833 26.1815L26.126 11.892L67.5544 27.5347L74.8301 36.9608L68.8152 58.1435L56.7771 68.3978L12.3599 50.1793Z" stroke="#EBA200" stroke-width="2" stroke-miterlimit="10"/>
</svg>
