<svg width="245" height="153" viewBox="0 0 245 153" fill="none" xmlns="http://www.w3.org/2000/svg">
<g clip-path="url(#clip0_319_1498)">
<path d="M137.288 89.958C137.128 89.0646 137.393 88.8833 138.251 88.9799C139.135 92.6743 138.87 97.7565 137.101 98.7323C137.101 98.7323 137.533 97.18 136.954 96.011C137.051 95.9373 137.182 95.781 137.253 95.4206C137.794 92.9248 137.611 91.7233 137.288 89.958Z" fill="#302D2D"/>
<path d="M124.737 89.5113C123.93 91.099 124.041 93.14 124.206 94.4697C124.26 94.8692 124.301 95.2017 124.332 95.4457C124.419 96.2417 124.573 96.5461 124.689 96.6493C124.42 97.8103 124.7 98.938 124.7 98.938C122.12 98.0593 122.267 92.2635 123.884 88.4351C124.987 88.1735 125.315 88.3276 124.737 89.5113Z" fill="#302D2D"/>
<path d="M131.122 89.4992C131.063 88.816 130.617 88.5801 130.284 89.8847C129.955 91.168 128.106 90.6733 128.552 89.4932C128.974 88.3316 128.978 83.5619 130.271 83.3482C131.72 83.1123 131.901 84.6403 132.617 87.0263C133.355 89.4153 133.268 90.3617 132.619 90.6425C131.971 90.9233 131.177 90.2039 131.122 89.4992Z" fill="#302D2D"/>
<path d="M127.242 81.776C127.274 83.2833 126.826 84.0057 124.432 85.723C122.036 87.4617 119.618 87.3024 118.199 85.2769C116.758 83.2483 117.647 80.9095 120.093 79.2866C123.807 76.8366 127.212 78.6787 127.242 81.776Z" fill="#302D2D"/>
<path d="M133.809 78.5427C130.982 75.6694 128.646 73.4956 127.942 72.9192C122.697 68.7758 117.791 66.2909 114.796 66.8362C115.038 66.1942 115.303 65.5338 115.605 64.922C119.239 63.5283 125.153 67.2412 130.819 72.2707C131.947 73.254 133.541 74.8027 135.354 76.6646C139.705 74.0194 147.473 82.127 143.832 86.4167C144.237 86.9519 144.717 87.7369 145.098 88.2905C144.656 88.97 144.005 89.4248 143.059 89.4904C142.678 88.9368 142.297 88.3832 141.874 87.8237C136.949 89.8889 132.603 82.2318 133.809 78.5427Z" fill="#302D2D"/>
<path fill-rule="evenodd" clip-rule="evenodd" d="M200.003 66.5215C195.823 64.6099 191.79 62.7657 188.089 61.3524C173.952 55.9821 148.77 46.9968 120.839 47.8264C92.9112 48.6347 69.7809 57.1406 56.2364 67.0563C51.7544 70.331 47.6932 75.3127 43.5482 80.3971C35.1696 90.6746 26.4488 101.372 13.2191 99.2406C27.157 113.471 47.2666 127.964 56.4559 128.775L56.5596 128.784C67.5374 129.748 101.189 132.705 146.808 126.102C191.804 119.609 193.239 118.52 204.652 109.867C204.846 109.72 205.043 109.571 205.244 109.419C214.487 102.417 227.537 86.7696 234.685 76.1675C224.688 77.8093 211.762 71.8985 200.003 66.5215ZM129.707 57.4362C144.502 57.4081 148.072 66.4177 146.71 78.1883L146.731 78.1912L150.003 75.7892C150.08 75.7335 150.181 75.6666 150.3 75.5883C151.198 74.9973 153.087 73.7546 152.654 71.733C152.185 69.4466 152.813 67.8994 155.719 67.5162C158.622 67.1544 159.82 68.7356 160.014 72.2257C162.093 71.8373 164.431 73.2055 164.203 76.5939C163.888 81.4078 159.552 80.9403 157.98 80.1789C156.53 79.4765 155.795 80.1701 153.53 82.3088C153.339 82.4887 153.138 82.6789 152.924 82.8794C149.525 86.048 141.129 91.6423 141.129 91.6423C141.343 92.5467 141.611 93.3817 141.856 94.1457C142.209 95.2459 142.515 96.199 142.546 97.0003C144.871 98.933 149.668 102.535 151.517 103.183C153.366 103.83 155.149 103.379 156.718 102.746C158.289 102.091 160.274 104.914 160.022 107.057C159.853 108.602 158.11 109.865 156.356 109.949C156.356 109.949 156.401 113.571 153.261 114.38C150.929 114.98 150.306 113.473 149.642 111.866C149.413 111.31 149.178 110.741 148.865 110.245C147.651 108.313 141.047 103.132 139.012 102.089C137.756 103.615 136.552 105.082 136.097 105.695C135.217 106.859 132.912 107.782 131.657 106.302C130.875 106.913 129.457 107.719 128.201 106.718C127.707 106.327 126.978 105.785 126.158 105.174C125.153 104.426 124.011 103.576 122.994 102.776C122.994 102.776 117.801 106.634 113.539 110.054L113.56 110.057C114.178 110.948 115.52 117.319 109.797 116.965C104.098 116.593 105.134 111.922 105.134 111.922C102.128 113.185 98.6052 109.671 100.946 105.811C103.265 101.949 106.901 102.429 109.31 103.916C114.407 100.132 120.084 96.5586 120.084 96.5586C120.312 94.4336 120.205 91.5856 120.084 89.151C117.989 87.5986 106.504 79.4155 104.703 80.4739C102.883 81.508 100.548 82.6452 98.7411 81.3722C96.9375 80.0778 95.1059 78.6706 96.474 76.3326C97.8421 73.9946 100.997 73.2318 100.997 73.2318C100.382 70.9033 100.983 69.0695 103.8 68.3907C106.616 67.7119 107.629 72.2083 107.629 72.2083C108.213 73.4713 110.074 74.6754 112.282 76.1046C112.677 76.3603 113.084 76.6232 113.496 76.8949C113.461 73.5139 113.731 69.9788 114.796 66.8366C115.037 66.1946 115.303 65.5342 115.605 64.9224C117.751 60.5788 121.907 57.4492 129.707 57.4362Z" fill="#302D2D"/>
<path d="M62.9013 39.1277C63.1539 46.3072 44.7585 49.2015 26.9086 58.436C37.6572 42.9722 46.1347 25.4742 50.6854 15.2543C51.9197 23.2228 57.4532 18.821 62.9013 39.1277Z" fill="#352E2F"/>
<path d="M61.1517 6.96103L89.6471 17.3348C79.9697 19.7462 70.0082 24.5067 61.911 28.7262L53.4911 9.41006L54.3778 6.48388L61.1517 6.96103Z" fill="#403B3B"/>
<path d="M237.242 69.835L203.067 69.835L167.902 32.6887L208.02 49.0331C214.47 52.5583 225.334 60.6509 225.334 60.6509L237.242 69.835Z" fill="#403B3B"/>
<path d="M195.853 60.8481C177.846 53.0595 156.899 41.7552 137.971 40.6436C96.464 38.1994 50.159 54.9329 40.1374 71.6801C30.7118 87.4226 11.4193 98.3645 11.4193 98.3645L5.05081 93.4197C4.59 92.8127 3.49106 84.0276 3.49106 84.0276C3.39591 84.0502 13.8884 72.1671 13.8884 72.1671C13.8884 72.1671 24.2736 66.3251 30.2659 63.152C47.4971 53.9863 75.1491 49.0191 64.2579 32.1256C63.323 30.6923 62.4522 29.2679 61.6212 27.8706L79.7413 16.344L96.0855 13.8675L132.241 13.8674L166.416 24.2685C166.416 24.2685 187.622 47.8418 195.852 58.1292L195.853 60.8481Z" fill="#1C1B1B"/>
<path d="M7.42986 94.9226C14.9227 104.539 41.8383 66.8246 41.8383 66.8246L57.949 55.967L76.8574 46.946L128.279 37.1463L162.542 43.4789L196.133 61.0913L237.242 69.8351C237.242 69.8351 235.099 75.9293 233.008 79.0824L207.186 73.4745L184.691 67.5709C174.946 63.8381 144.6 52.4585 144.6 52.4585L115.736 52.5078L87.3506 58.329L52.5882 74.5449L38.3752 89.6082C38.3752 89.6082 21.8154 103.751 14.2112 102.524C14.2112 102.524 9.43291 97.399 7.42986 94.9226Z" fill="#4F6165"/>
<path d="M27.2409 57.948L59.4343 41.6036L50.5192 15.3535L53.9863 10.4009L61.4155 26.7453L65.8731 32.6887L68.3495 39.7162L62.4063 48.5378L28.2314 65.3773L13.8684 72.3115C13.8684 72.3115 27.2437 57.9483 27.2409 57.948Z" fill="#4F6165"/>
</g>
<defs>
<clipPath id="clip0_319_1498">
<rect width="230.346" height="122.154" fill="white" transform="translate(16.6953) rotate(7.85545)"/>
</clipPath>
</defs>
</svg>
