<svg width="96" height="46" viewBox="0 0 96 46" fill="none" xmlns="http://www.w3.org/2000/svg">
<g filter="url(#filter0_d_398_3127)">
<path d="M30 8H73C76.7226 8 78.5838 8 80.0902 8.48943C83.1345 9.47861 85.5214 11.8655 86.5106 14.9098C87 16.4162 87 18.2774 87 22C87 25.7226 87 27.5838 86.5106 29.0902C85.5214 32.1346 83.1345 34.5214 80.0902 35.5106C78.5838 36 76.7226 36 73 36H30V8Z" fill="url(#paint0_linear_398_3127)"/>
<path d="M31.5 9.5H73C76.8393 9.5 78.4032 9.51851 79.6266 9.91602C82.2144 10.7568 84.2432 12.7856 85.084 15.3734C85.4815 16.5968 85.5 18.1607 85.5 22C85.5 25.8393 85.4815 27.4032 85.084 28.6266C84.2432 31.2144 82.2144 33.2432 79.6266 34.084C78.4032 34.4815 76.8393 34.5 73 34.5H31.5V9.5Z" stroke="#FCD536" stroke-width="3"/>
</g>
<path d="M1.30092 33.164L4.15629 37.8598L9.74267 41.9915L20.5603 41.8288L32.8672 33.9764L37.5799 16.692L32.0995 5.02312L23.6498 2.21642L18.9967 7.06485L1.30092 33.164Z" fill="#CD8129" stroke="#B96E29" stroke-width="1.03282" stroke-miterlimit="10"/>
<path d="M27.7791 30.7891C27.5727 31.4964 18.0384 36.7667 18.0384 36.7667L8.53609 38.1604L1.29886 33.1667L0.527385 24.1121L3.30031 14.5923L11.0503 5.18663L20.8206 1.29281L29.4915 4.223L32.8446 14.7759L27.777 30.7925L27.7791 30.7891Z" fill="url(#paint1_linear_398_3127)" stroke="#B96E29" stroke-width="1.03282" stroke-miterlimit="10" stroke-linejoin="round"/>
<path d="M33.3614 14.7953L37.1076 16.7628L32.4639 33.697L28.2091 31.0481L33.3614 14.7953Z" fill="#FDC06E"/>
<path d="M18.2084 37.2046L20.4077 41.402L9.89099 41.5293L4.48305 37.6129L2.83287 34.7807L8.43378 38.6419" fill="#A76127"/>
<path d="M24.003 25.7662L26.3334 15.3124L23.4613 8.78239L18.9973 7.06433L11.2583 10.1432L6.04301 17.1997L4.56046 28.0061L9.04074 32.7329L16.0357 32.1232L24.003 25.7662Z" fill="url(#paint2_linear_398_3127)" stroke="#B96E29" stroke-width="1.03282" stroke-miterlimit="10"/>
<path d="M14.0952 13.4303L16.7019 12.6798L18.9498 13.5866L19.6005 15.754L18.1887 18.9869L16.526 19.9509L13.5877 19.6896L12.6507 21.797L14.9221 22.1642L16.2471 22.1364L17.277 21.7022L18.3297 23.054L17.9401 25.5022L16.556 26.4358L14.131 26.0914L10.62 24.024L10.3448 21.4699L11.3653 19.3055L16.9071 17.1611L16.7011 15.5074L14.3848 15.2355L11.885 16.9573L12.5841 14.7918L14.0952 13.4303Z" fill="#A76127"/>
<path d="M11.7125 27.4609L15.7499 11.3383L14.5751 11.9049L10.882 26.9723L11.7125 27.4609Z" fill="#A76127"/>
<path d="M13.8507 28.2571L17.789 10.9501L16.087 11.3827L12.3569 27.583L13.8507 28.2571Z" fill="#A76127"/>
<defs>
<filter id="filter0_d_398_3127" x="23" y="3" width="71" height="42" filterUnits="userSpaceOnUse" color-interpolation-filters="sRGB">
<feFlood flood-opacity="0" result="BackgroundImageFix"/>
<feColorMatrix in="SourceAlpha" type="matrix" values="0 0 0 0 0 0 0 0 0 0 0 0 0 0 0 0 0 0 127 0" result="hardAlpha"/>
<feMorphology radius="3" operator="dilate" in="SourceAlpha" result="effect1_dropShadow_398_3127"/>
<feOffset dy="2"/>
<feGaussianBlur stdDeviation="2"/>
<feComposite in2="hardAlpha" operator="out"/>
<feColorMatrix type="matrix" values="0 0 0 0 0 0 0 0 0 0 0 0 0 0 0 0 0 0 0.25 0"/>
<feBlend mode="normal" in2="BackgroundImageFix" result="effect1_dropShadow_398_3127"/>
<feBlend mode="normal" in="SourceGraphic" in2="effect1_dropShadow_398_3127" result="shape"/>
</filter>
<linearGradient id="paint0_linear_398_3127" x1="58.5851" y1="8" x2="58.5851" y2="36" gradientUnits="userSpaceOnUse">
<stop stop-color="#C0560A"/>
<stop offset="1" stop-color="#813001"/>
</linearGradient>
<linearGradient id="paint1_linear_398_3127" x1="12.1262" y1="4.17668" x2="16.6138" y2="38.2985" gradientUnits="userSpaceOnUse">
<stop stop-color="#FCD939"/>
<stop offset="1" stop-color="#F8980C"/>
</linearGradient>
<linearGradient id="paint2_linear_398_3127" x1="14.2757" y1="10.996" x2="15.7027" y2="33.014" gradientUnits="userSpaceOnUse">
<stop stop-color="#FDE546"/>
<stop offset="1" stop-color="#FC9C0D"/>
</linearGradient>
</defs>
</svg>
