<svg width="58" height="58" viewBox="0 0 58 58" fill="none" xmlns="http://www.w3.org/2000/svg">
<g filter="url(#filter0_d_379_2793)">
<path fill-rule="evenodd" clip-rule="evenodd" d="M28.9999 6.15222C33.45 6.15222 37.8001 7.47182 41.5002 9.94414C45.2003 12.4165 48.0841 15.9305 49.7871 20.0418C51.4901 24.1531 51.9357 28.6771 51.0675 33.0417C50.1994 37.4063 48.0565 41.4154 44.9098 44.5621C41.7632 47.7088 37.7541 49.8517 33.3895 50.7199C29.025 51.588 24.501 51.1425 20.3897 49.4395C16.2783 47.7366 12.7643 44.8527 10.292 41.1526C7.81965 37.4526 6.50003 33.1024 6.5 28.6524C6.5 22.685 8.87053 16.962 13.0901 12.7424C17.3096 8.52282 23.0326 6.15226 28.9999 6.15222Z" fill="url(#paint0_linear_379_2793)"/>
<path fill-rule="evenodd" clip-rule="evenodd" d="M12.3555 28.6523C12.3555 24.2379 14.1091 20.0043 17.2305 16.8829C20.352 13.7614 24.5855 12.0078 28.9999 12.0078C33.4143 12.0078 37.6479 13.7614 40.7693 16.8829C43.8908 20.0043 45.6443 24.2379 45.6443 28.6523C45.8635 28.0519 46.2619 27.5334 46.7856 27.1671C47.3094 26.8007 47.933 26.6043 48.5722 26.6043C49.2113 26.6043 49.835 26.8007 50.3587 27.1671C50.8824 27.5334 51.2808 28.0519 51.5 28.6523C51.5 22.6849 49.1294 16.962 44.9099 12.7424C40.6903 8.52281 34.9674 6.15227 29 6.15227C23.0326 6.15227 17.3097 8.52281 13.0901 12.7424C8.87053 16.962 6.5 22.6849 6.5 28.6523C6.71913 28.052 7.11756 27.5335 7.64126 27.1671C8.16496 26.8007 8.78861 26.6043 9.42773 26.6043C10.0669 26.6043 10.6905 26.8007 11.2142 27.1671C11.7379 27.5335 12.1364 28.052 12.3555 28.6523Z" fill="url(#paint1_linear_379_2793)"/>
<g style="mix-blend-mode:screen">
<path fill-rule="evenodd" clip-rule="evenodd" d="M28.5736 11.5711C31.8676 11.5711 35.0876 12.5479 37.8264 14.378C40.5652 16.208 42.6999 18.8091 43.9604 21.8524C45.221 24.8956 45.5508 28.2443 44.9081 31.475C44.2655 34.7056 42.6793 37.6732 40.3501 40.0024C38.0209 42.3316 35.0533 43.9178 31.8227 44.5604C28.592 45.203 25.2433 44.8731 22.2001 43.6126C19.1569 42.352 16.5558 40.2173 14.7258 37.4785C12.8957 34.7397 11.919 31.5196 11.919 28.2257C11.919 23.8086 13.6737 19.5724 16.7971 16.4491C19.9204 13.3258 24.1566 11.5711 28.5736 11.5711Z" fill="#F7E984"/>
</g>
<path fill-rule="evenodd" clip-rule="evenodd" d="M28.9999 12.0077C32.2919 12.0077 35.5099 12.9839 38.2471 14.8128C40.9842 16.6417 43.1176 19.2412 44.3774 22.2826C45.6371 25.324 45.9667 28.6706 45.3245 31.8993C44.6823 35.1281 43.0971 38.0938 40.7694 40.4216C38.4416 42.7494 35.4758 44.3346 32.2472 44.9769C29.0185 45.6191 25.6718 45.2895 22.6305 44.0298C19.5891 42.77 16.9896 40.6367 15.1606 37.8995C13.3317 35.1623 12.3555 31.9443 12.3555 28.6524C12.3555 24.2379 14.109 20.0043 17.2305 16.8828C20.3519 13.7614 24.5855 12.0077 28.9999 12.0077Z" fill="url(#paint2_radial_379_2793)"/>
<path style="mix-blend-mode:screen" fill-rule="evenodd" clip-rule="evenodd" d="M15.3099 38.1216L38.4695 14.962C36.496 13.5997 34.2521 12.6788 31.8906 12.2619C29.5291 11.8449 27.1055 11.9419 24.7849 12.546L12.8938 24.4372C12.2896 26.7578 12.1927 29.1814 12.6096 31.5428C13.0266 33.9043 13.9476 36.1481 15.3099 38.1216Z" fill="url(#paint3_radial_379_2793)"/>
<path style="mix-blend-mode:screen" fill-rule="evenodd" clip-rule="evenodd" d="M44.2602 22.6173L22.965 43.9126L22.7813 44.0961C24.5577 44.8117 26.4447 45.2138 28.3585 45.2846L28.7637 44.8795L45.2271 28.4162L45.6323 28.0108C45.5614 26.0971 45.1593 24.2101 44.4438 22.4336L44.2602 22.6173Z" fill="url(#paint4_radial_379_2793)"/>
<path fill-rule="evenodd" clip-rule="evenodd" d="M28.9999 6.73784C33.3342 6.73783 37.5711 8.02307 41.1749 10.4311C44.7787 12.839 47.5875 16.2616 49.2462 20.2659C50.9049 24.2703 51.3388 28.6765 50.4933 32.9275C49.6477 37.1785 47.5606 41.0833 44.4958 44.1481C41.4311 47.2129 37.5263 49.3001 33.2753 50.1456C29.0244 50.9912 24.6181 50.5573 20.6138 48.8986C16.6094 47.24 13.1869 44.4312 10.7789 40.8274C8.37089 37.2236 7.08563 32.9866 7.08562 28.6524C7.08561 22.8403 9.39443 17.2663 13.5042 13.1565C17.6139 9.04673 23.1879 6.73787 28.9999 6.73784ZM28.9999 6.15222C33.45 6.15222 37.8001 7.47182 41.5002 9.94414C45.2003 12.4165 48.0841 15.9305 49.7871 20.0418C51.4901 24.1531 51.9357 28.6771 51.0675 33.0417C50.1994 37.4063 48.0565 41.4154 44.9098 44.5621C41.7632 47.7088 37.7541 49.8517 33.3895 50.7199C29.025 51.588 24.501 51.1425 20.3897 49.4395C16.2783 47.7366 12.7643 44.8527 10.292 41.1526C7.81965 37.4526 6.50003 33.1024 6.5 28.6524C6.5 22.685 8.87053 16.962 13.0901 12.7424C17.3096 8.52282 23.0326 6.15226 28.9999 6.15222Z" fill="url(#paint5_linear_379_2793)"/>
<g style="mix-blend-mode:screen">
<path fill-rule="evenodd" clip-rule="evenodd" d="M7.61829 23.8276C8.92204 19.1593 11.7178 15.046 15.5786 12.1157C19.4394 9.18541 24.1531 7.59916 28.9999 7.59916C33.8468 7.59916 38.5605 9.18541 42.4213 12.1157C46.2821 15.046 49.0778 19.1593 50.3816 23.8276C49.2854 18.9757 46.5716 14.6408 42.686 11.5352C38.8004 8.42957 33.9741 6.73779 28.9999 6.73779C24.0258 6.73779 19.1995 8.42957 15.3139 11.5352C11.4283 14.6408 8.7145 18.9757 7.61829 23.8276Z" fill="#F7E984"/>
</g>
<path d="M24.5 36.5272V20.7772L36.875 28.6522L24.5 36.5272Z" fill="#954B25"/>
</g>
<defs>
<filter id="filter0_d_379_2793" x="0.5" y="0.152222" width="56.9999" height="57" filterUnits="userSpaceOnUse" color-interpolation-filters="sRGB">
<feFlood flood-opacity="0" result="BackgroundImageFix"/>
<feColorMatrix in="SourceAlpha" type="matrix" values="0 0 0 0 0 0 0 0 0 0 0 0 0 0 0 0 0 0 127 0" result="hardAlpha"/>
<feOffset/>
<feGaussianBlur stdDeviation="3"/>
<feComposite in2="hardAlpha" operator="out"/>
<feColorMatrix type="matrix" values="0 0 0 0 0 0 0 0 0 0 0 0 0 0 0 0 0 0 0.7 0"/>
<feBlend mode="normal" in2="BackgroundImageFix" result="effect1_dropShadow_379_2793"/>
<feBlend mode="normal" in="SourceGraphic" in2="effect1_dropShadow_379_2793" result="shape"/>
</filter>
<linearGradient id="paint0_linear_379_2793" x1="29" y1="51.1522" x2="29" y2="6.15222" gradientUnits="userSpaceOnUse">
<stop stop-color="#DE8B00"/>
<stop offset="1" stop-color="#FFC75E"/>
</linearGradient>
<linearGradient id="paint1_linear_379_2793" x1="29" y1="28.6523" x2="29" y2="6.1522" gradientUnits="userSpaceOnUse">
<stop stop-color="#FFB805"/>
<stop offset="1" stop-color="#FFE89C"/>
</linearGradient>
<radialGradient id="paint2_radial_379_2793" cx="0" cy="0" r="1" gradientUnits="userSpaceOnUse" gradientTransform="translate(21.1482 14.1756) scale(36.9433 36.9434)">
<stop stop-color="#FFEEB8"/>
<stop offset="1" stop-color="#FFBF00"/>
</radialGradient>
<radialGradient id="paint3_radial_379_2793" cx="0" cy="0" r="1" gradientUnits="userSpaceOnUse" gradientTransform="translate(22.9588 4.4539) scale(37.279 37.2792)">
<stop stop-color="#FFFD9E"/>
<stop offset="1"/>
</radialGradient>
<radialGradient id="paint4_radial_379_2793" cx="0" cy="0" r="1" gradientUnits="userSpaceOnUse" gradientTransform="translate(36.6604 16.9288) scale(31.6485 31.6486)">
<stop stop-color="#FFFD9E"/>
<stop offset="1"/>
</radialGradient>
<linearGradient id="paint5_linear_379_2793" x1="29" y1="51.1522" x2="29" y2="6.15222" gradientUnits="userSpaceOnUse">
<stop stop-color="#CF8000"/>
<stop offset="1" stop-color="#F5B133"/>
</linearGradient>
</defs>
</svg>
